<svg width="17" height="22" viewBox="0 0 17 22" fill="none" xmlns="http://www.w3.org/2000/svg">
<path fill-rule="evenodd" clip-rule="evenodd" d="M8.63574 21L9.42449 20.1135C10.3195 19.0911 11.1245 18.1211 11.8407 17.1985L12.432 16.4205C14.9007 13.1027 16.1357 10.4695 16.1357 8.5232C16.1357 4.36884 12.7782 1.00122 8.63574 1.00122C4.49324 1.00122 1.13574 4.36884 1.13574 8.5232C1.13574 10.4695 2.37074 13.1027 4.83949 16.4205L5.43074 17.1985C6.45254 18.5044 7.52158 19.7715 8.63574 21Z" stroke="#0D42A8" stroke-linecap="round" stroke-linejoin="round"/>
<path d="M8.63569 11.599C10.3616 11.599 11.7607 10.2035 11.7607 8.482C11.7607 6.76052 10.3616 5.36499 8.63569 5.36499C6.9098 5.36499 5.51069 6.76052 5.51069 8.482C5.51069 10.2035 6.9098 11.599 8.63569 11.599Z" stroke="#0D42A8" stroke-linecap="round" stroke-linejoin="round"/>
</svg>
