<svg width="23" height="23" viewBox="0 0 23 23" fill="none" xmlns="http://www.w3.org/2000/svg">
<path d="M10.3982 4.62414H13.839L17.6124 0.839261C17.7191 0.731761 17.8459 0.646435 17.9857 0.588207C18.1254 0.529979 18.2754 0.5 18.4268 0.5C18.5782 0.5 18.7281 0.529979 18.8678 0.588207C19.0076 0.646435 19.1345 0.731761 19.2411 0.839261L22.2002 3.80982C22.4138 4.02471 22.5337 4.3154 22.5337 4.6184C22.5337 4.92141 22.4138 5.2121 22.2002 5.42699L19.5737 8.06494H10.3982V10.3588C10.3982 10.663 10.2774 10.9547 10.0623 11.1698C9.84721 11.3849 9.55548 11.5057 9.2513 11.5057C8.94711 11.5057 8.65539 11.3849 8.4403 11.1698C8.2252 10.9547 8.10437 10.663 8.10437 10.3588V6.918C8.10437 6.30963 8.34604 5.72618 8.77622 5.296C9.20641 4.86581 9.78986 4.62414 10.3982 4.62414ZM3.51664 10.3588V14.9465L0.89016 17.573C0.676543 17.7879 0.556641 18.0786 0.556641 18.3816C0.556641 18.6846 0.676543 18.9753 0.89016 19.1902L3.84925 22.1607C3.95587 22.2682 4.08272 22.3536 4.22248 22.4118C4.36225 22.47 4.51216 22.5 4.66357 22.5C4.81498 22.5 4.96489 22.47 5.10465 22.4118C5.24442 22.3536 5.37127 22.2682 5.47789 22.1607L10.3982 17.2404H14.986C15.2901 17.2404 15.5819 17.1196 15.797 16.9045C16.0121 16.6894 16.1329 16.3977 16.1329 16.0935V14.9465H17.2798C17.584 14.9465 17.8757 14.8257 18.0908 14.6106C18.3059 14.3955 18.4268 14.1038 18.4268 13.7996V12.6527H19.5737C19.8779 12.6527 20.1696 12.5318 20.3847 12.3167C20.5998 12.1016 20.7206 11.8099 20.7206 11.5057V10.3588H12.6921V11.5057C12.6921 12.1141 12.4504 12.6976 12.0202 13.1277C11.5901 13.5579 11.0066 13.7996 10.3982 13.7996H8.10437C7.496 13.7996 6.91254 13.5579 6.48236 13.1277C6.05218 12.6976 5.8105 12.1141 5.8105 11.5057V8.06494L3.51664 10.3588Z" fill="#DDCECE"/>
</svg>
