<svg width="19" height="18" viewBox="0 0 19 18" fill="none" xmlns="http://www.w3.org/2000/svg">
<mask id="path-1-inside-1_1_1106" fill="white">
<path d="M17.2147 18.0012C17.5916 18.0012 17.953 17.8515 18.2195 17.585C18.486 17.3185 18.6357 16.9571 18.6357 16.5802V13.2644C18.6357 12.8875 18.486 12.526 18.2195 12.2595C17.953 11.993 17.5916 11.8433 17.2147 11.8433C16.1063 11.8433 15.0168 11.6728 13.9747 11.3223C13.7255 11.2436 13.4596 11.2347 13.2058 11.2965C12.9519 11.3583 12.7198 11.4884 12.5347 11.6728L11.1705 13.037C8.81372 11.7508 6.8767 9.81377 5.59048 7.45701L6.94522 6.10227C7.33364 5.7328 7.47574 5.18333 7.30522 4.6528C6.96416 3.62017 6.79364 2.53069 6.79364 1.42227C6.79364 1.04539 6.64392 0.683937 6.37742 0.417437C6.11092 0.150938 5.74947 0.0012207 5.37258 0.0012207H2.05679C1.67991 0.0012207 1.31846 0.150938 1.05196 0.417437C0.78546 0.683937 0.635742 1.04539 0.635742 1.42227C0.635742 10.5644 8.07258 18.0012 17.2147 18.0012ZM2.05679 0.948589H5.37258C5.49821 0.948589 5.6187 0.998495 5.70753 1.08733C5.79636 1.17616 5.84627 1.29664 5.84627 1.42227C5.84627 2.6349 6.03574 3.81912 6.40522 4.94648C6.45258 5.07912 6.44311 5.26859 6.29153 5.42017L4.42522 7.27701C5.98837 10.337 8.28101 12.6296 11.3505 14.2117L13.1978 12.3454C13.3305 12.2128 13.5105 12.1749 13.681 12.2223C14.8178 12.6012 16.0021 12.7907 17.2147 12.7907C17.3403 12.7907 17.4608 12.8406 17.5496 12.9294C17.6385 13.0183 17.6884 13.1388 17.6884 13.2644V16.5802C17.6884 16.7058 17.6385 16.8263 17.5496 16.9151C17.4608 17.0039 17.3403 17.0539 17.2147 17.0539C8.59364 17.0539 1.58311 10.0433 1.58311 1.42227C1.58311 1.29664 1.63302 1.17616 1.72185 1.08733C1.81068 0.998495 1.93117 0.948589 2.05679 0.948589Z"/>
</mask>
<path d="M17.2147 18.0012C17.5916 18.0012 17.953 17.8515 18.2195 17.585C18.486 17.3185 18.6357 16.9571 18.6357 16.5802V13.2644C18.6357 12.8875 18.486 12.526 18.2195 12.2595C17.953 11.993 17.5916 11.8433 17.2147 11.8433C16.1063 11.8433 15.0168 11.6728 13.9747 11.3223C13.7255 11.2436 13.4596 11.2347 13.2058 11.2965C12.9519 11.3583 12.7198 11.4884 12.5347 11.6728L11.1705 13.037C8.81372 11.7508 6.8767 9.81377 5.59048 7.45701L6.94522 6.10227C7.33364 5.7328 7.47574 5.18333 7.30522 4.6528C6.96416 3.62017 6.79364 2.53069 6.79364 1.42227C6.79364 1.04539 6.64392 0.683937 6.37742 0.417437C6.11092 0.150938 5.74947 0.0012207 5.37258 0.0012207H2.05679C1.67991 0.0012207 1.31846 0.150938 1.05196 0.417437C0.78546 0.683937 0.635742 1.04539 0.635742 1.42227C0.635742 10.5644 8.07258 18.0012 17.2147 18.0012ZM2.05679 0.948589H5.37258C5.49821 0.948589 5.6187 0.998495 5.70753 1.08733C5.79636 1.17616 5.84627 1.29664 5.84627 1.42227C5.84627 2.6349 6.03574 3.81912 6.40522 4.94648C6.45258 5.07912 6.44311 5.26859 6.29153 5.42017L4.42522 7.27701C5.98837 10.337 8.28101 12.6296 11.3505 14.2117L13.1978 12.3454C13.3305 12.2128 13.5105 12.1749 13.681 12.2223C14.8178 12.6012 16.0021 12.7907 17.2147 12.7907C17.3403 12.7907 17.4608 12.8406 17.5496 12.9294C17.6385 13.0183 17.6884 13.1388 17.6884 13.2644V16.5802C17.6884 16.7058 17.6385 16.8263 17.5496 16.9151C17.4608 17.0039 17.3403 17.0539 17.2147 17.0539C8.59364 17.0539 1.58311 10.0433 1.58311 1.42227C1.58311 1.29664 1.63302 1.17616 1.72185 1.08733C1.81068 0.998495 1.93117 0.948589 2.05679 0.948589Z" fill="#0D42A8"/>
<path d="M17.2147 11.8433V10.8433V11.8433ZM13.9747 11.3223L14.2935 10.3745L14.2846 10.3715L14.2757 10.3687L13.9747 11.3223ZM12.5347 11.6728L11.8291 10.9642L11.8276 10.9657L12.5347 11.6728ZM11.1705 13.037L10.6914 13.9148L11.3484 14.2733L11.8776 13.7441L11.1705 13.037ZM5.59048 7.45701L4.88337 6.7499L4.35416 7.27912L4.7127 7.93607L5.59048 7.45701ZM6.94522 6.10227L6.256 5.37772L6.24695 5.38633L6.23811 5.39517L6.94522 6.10227ZM7.30522 4.6528L8.25728 4.34678L8.25477 4.33919L7.30522 4.6528ZM6.79364 1.42227H7.79364H6.79364ZM5.37258 0.0012207V-0.998779V0.0012207ZM0.635742 1.42227H-0.364258H0.635742ZM2.05679 0.948589V1.94859V0.948589ZM5.37258 0.948589V1.94859V0.948589ZM6.40522 4.94648L5.45495 5.25792L5.45905 5.27042L5.46347 5.28282L6.40522 4.94648ZM6.29153 5.42017L6.99684 6.12907L6.99864 6.12728L6.29153 5.42017ZM4.42522 7.27701L3.71991 6.56811L3.20292 7.08248L3.53468 7.73193L4.42522 7.27701ZM11.3505 14.2117L10.8923 15.1006L11.5448 15.4369L12.0612 14.9152L11.3505 14.2117ZM13.1978 12.3454L12.4907 11.6383L12.4871 11.6419L13.1978 12.3454ZM13.681 12.2223L13.9972 11.2736L13.9731 11.2656L13.9487 11.2588L13.681 12.2223ZM17.2147 19.0012C17.8568 19.0012 18.4726 18.7461 18.9266 18.2921L17.5124 16.8779C17.4335 16.9569 17.3264 17.0012 17.2147 17.0012V19.0012ZM18.9266 18.2921C19.3807 17.8381 19.6357 17.2223 19.6357 16.5802H17.6357C17.6357 16.6918 17.5914 16.7989 17.5124 16.8779L18.9266 18.2921ZM19.6357 16.5802V13.2644H17.6357V16.5802H19.6357ZM19.6357 13.2644C19.6357 12.6223 19.3807 12.0065 18.9266 11.5524L17.5124 12.9666C17.5914 13.0456 17.6357 13.1527 17.6357 13.2644H19.6357ZM18.9266 11.5524C18.4726 11.0984 17.8568 10.8433 17.2147 10.8433V12.8433C17.3264 12.8433 17.4335 12.8877 17.5124 12.9666L18.9266 11.5524ZM17.2147 10.8433C16.2094 10.8433 15.228 10.6888 14.2935 10.3745L13.6559 12.2701C14.8056 12.6568 16.0031 12.8433 17.2147 12.8433V10.8433ZM14.2757 10.3687C13.8524 10.235 13.4006 10.2199 12.9692 10.3249L13.4423 12.2681C13.5187 12.2495 13.5987 12.2522 13.6737 12.2759L14.2757 10.3687ZM12.9692 10.3249C12.5379 10.4299 12.1436 10.651 11.8291 10.9642L13.2403 12.3814C13.296 12.3259 13.3659 12.2867 13.4423 12.2681L12.9692 10.3249ZM11.8276 10.9657L10.4634 12.3299L11.8776 13.7441L13.2418 12.3799L11.8276 10.9657ZM11.6495 12.1592C9.46118 10.9649 7.66257 9.16631 6.46826 6.97795L4.7127 7.93607C6.09082 10.4612 8.16626 12.5367 10.6914 13.9148L11.6495 12.1592ZM6.29759 8.16412L7.65232 6.80938L6.23811 5.39517L4.88337 6.7499L6.29759 8.16412ZM7.63443 6.82683C8.30511 6.18886 8.54351 5.23739 8.25724 4.34679L6.35319 4.95881C6.40798 5.12926 6.36216 5.27673 6.256 5.37772L7.63443 6.82683ZM8.25477 4.33919C7.94835 3.41142 7.79364 2.42808 7.79364 1.42227H5.79364C5.79364 2.63331 5.97998 3.82892 6.35567 4.96641L8.25477 4.33919ZM7.79364 1.42227C7.79364 0.780171 7.53856 0.164366 7.08453 -0.289669L5.67031 1.12454C5.74928 1.20351 5.79364 1.3106 5.79364 1.42227H7.79364ZM7.08453 -0.289669C6.63049 -0.743705 6.01469 -0.998779 5.37258 -0.998779V1.00122C5.48425 1.00122 5.59135 1.04558 5.67031 1.12454L7.08453 -0.289669ZM5.37258 -0.998779H2.05679V1.00122H5.37258V-0.998779ZM2.05679 -0.998779C1.41469 -0.998779 0.798888 -0.743705 0.344852 -0.289669L1.75907 1.12454C1.83803 1.04558 1.94512 1.00122 2.05679 1.00122V-0.998779ZM0.344852 -0.289669C-0.109183 0.164366 -0.364258 0.78017 -0.364258 1.42227H1.63574C1.63574 1.3106 1.6801 1.20351 1.75907 1.12454L0.344852 -0.289669ZM-0.364258 1.42227C-0.364258 11.1167 7.5203 19.0012 17.2147 19.0012V17.0012C8.62487 17.0012 1.63574 10.0121 1.63574 1.42227H-0.364258ZM2.05679 1.94859H5.37258V-0.0514109H2.05679V1.94859ZM5.37258 1.94859C5.233 1.94859 5.09913 1.89314 5.00042 1.79443L6.41464 0.380221C6.13827 0.103852 5.76343 -0.0514109 5.37258 -0.0514109V1.94859ZM5.00042 1.79443C4.90172 1.69573 4.84627 1.56186 4.84627 1.42227H6.84627C6.84627 1.03143 6.69101 0.65659 6.41464 0.380221L5.00042 1.79443ZM4.84627 1.42227C4.84627 2.73973 5.05223 4.02911 5.45495 5.25792L7.35548 4.63505C7.01926 3.60913 6.84627 2.53008 6.84627 1.42227H4.84627ZM5.46347 5.28282C5.43148 5.19322 5.42099 5.09485 5.43979 4.99363C5.46034 4.88297 5.51362 4.78387 5.58442 4.71306L6.99864 6.12728C7.46413 5.66178 7.50378 5.04925 7.34696 4.61015L5.46347 5.28282ZM5.58623 4.71126L3.71991 6.56811L5.13052 7.98591L6.99684 6.12907L5.58623 4.71126ZM3.53468 7.73193C5.19385 10.9799 7.63851 13.4235 10.8923 15.1006L11.8086 13.3229C8.92351 11.8358 6.7829 9.69415 5.31575 6.82209L3.53468 7.73193ZM12.0612 14.9152L13.9086 13.0489L12.4871 11.6419L10.6398 13.5083L12.0612 14.9152ZM13.905 13.0525C13.8417 13.1158 13.7569 13.1649 13.6612 13.1881C13.568 13.2107 13.482 13.2049 13.4134 13.1858L13.9487 11.2588C13.4594 11.1229 12.8987 11.2304 12.4907 11.6383L13.905 13.0525ZM13.3648 13.171C14.6056 13.5846 15.8967 13.7907 17.2147 13.7907V11.7907C16.1074 11.7907 15.0301 11.6179 13.9972 11.2736L13.3648 13.171ZM17.2147 13.7907C17.0751 13.7907 16.9412 13.7352 16.8425 13.6365L18.2567 12.2223C17.9804 11.946 17.6055 11.7907 17.2147 11.7907V13.7907ZM16.8425 13.6365C16.7438 13.5378 16.6884 13.404 16.6884 13.2644H18.6884C18.6884 12.8735 18.5331 12.4987 18.2567 12.2223L16.8425 13.6365ZM16.6884 13.2644V16.5802H18.6884V13.2644H16.6884ZM16.6884 16.5802C16.6884 16.4406 16.7438 16.3067 16.8425 16.208L18.2567 17.6222C18.5331 17.3458 18.6884 16.971 18.6884 16.5802H16.6884ZM16.8425 16.208C16.9412 16.1093 17.0751 16.0539 17.2147 16.0539V18.0539C17.6055 18.0539 17.9804 17.8986 18.2567 17.6222L16.8425 16.208ZM17.2147 16.0539C9.14592 16.0539 2.58311 9.49104 2.58311 1.42227H0.583111C0.583111 10.5956 8.04135 18.0539 17.2147 18.0539V16.0539ZM2.58311 1.42227C2.58311 1.56186 2.52766 1.69573 2.42896 1.79443L1.01474 0.380221C0.738374 0.65659 0.583111 1.03143 0.583111 1.42227H2.58311ZM2.42896 1.79443C2.33025 1.89314 2.19638 1.94859 2.05679 1.94859V-0.0514109C1.66595 -0.0514109 1.29111 0.103852 1.01474 0.380221L2.42896 1.79443Z" fill="#0D42A8" mask="url(#path-1-inside-1_1_1106)"/>
</svg>
